HIERARCHY
ROOT Hips
{
	OFFSET 0.000003 96.368652 -0.035689
	CHANNELS 6 Xposition Yposition Zposition Xrotation Yrotation Zrotation
	JOINT Spine
	{
		OFFSET 0.000010 9.226303 1.577100
		CHANNELS 6 Xposition Yposition Zposition Xrotation Yrotation Zrotation
		JOINT Spine1
		{
			OFFSET 0.000000 16.253998 -0.165600
			CHANNELS 6 Xposition Yposition Zposition Xrotation Yrotation Zrotation
			JOINT Spine2
			{
				OFFSET -0.000000 13.639587 -1.292299
				CHANNELS 6 Xposition Yposition Zposition Xrotation Yrotation Zrotation
				JOINT Neck
				{
					OFFSET 0.000000 13.877411 -4.354199
					CHANNELS 6 Xposition Yposition Zposition Xrotation Yrotation Zrotation
					JOINT Neck1
					{
						OFFSET 0.000000 4.339996 0.926899
						CHANNELS 6 Xposition Yposition Zposition Xrotation Yrotation Zrotation
						JOINT Head
						{
							OFFSET 0.000000 4.026611 0.858500
							CHANNELS 6 Xposition Yposition Zposition Xrotation Yrotation Zrotation
							JOINT HeadTop_End
							{
								OFFSET 0.000000 21.748810 0.000000
								CHANNELS 6 Xposition Yposition Zposition Xrotation Yrotation Zrotation
								End Site
								{
									OFFSET 0.000000 11.825378 0.000000
								}
							}
							JOINT L_Eye
							{
								OFFSET 3.005700 7.261795 7.955601
								CHANNELS 6 Xposition Yposition Zposition Xrotation Yrotation Zrotation
								End Site
								{
									OFFSET 0.000000 11.825378 0.000000
								}
							}
							JOINT R_Eye
							{
								OFFSET -3.005700 7.261795 7.955601
								CHANNELS 6 Xposition Yposition Zposition Xrotation Yrotation Zrotation
								End Site
								{
									OFFSET 0.000000 11.825378 0.000000
								}
							}
							JOINT Jaw
							{
								OFFSET 0.000000 2.030289 2.456200
								CHANNELS 6 Xposition Yposition Zposition Xrotation Yrotation Zrotation
								End Site
								{
									OFFSET 0.000000 11.825378 0.000000
								}
							}
						}
					}
				}
				JOINT L_Shoulder
				{
					OFFSET 6.144200 10.187012 -3.793198
					CHANNELS 6 Xposition Yposition Zposition Xrotation Yrotation Zrotation
					JOINT L_Arm
					{
						OFFSET 12.319103 -1.112991 -1.793500
						CHANNELS 3 Xrotation Yrotation Zrotation
						JOINT L_ForeArm
						{
							OFFSET 27.687006 -0.000015 -0.000000
							CHANNELS 3 Xrotation Yrotation Zrotation
							JOINT L_Hand
							{
								OFFSET 27.873787 0.000031 -0.000000
								CHANNELS 3 Xrotation Yrotation Zrotation
								JOINT L_HandThumb1
								{
									OFFSET 2.421021 -1.395554 2.392360
									CHANNELS 6 Xposition Yposition Zposition Xrotation Yrotation Zrotation
									JOINT L_HandThumb2
									{
										OFFSET 3.496521 -2.018692 2.018717
										CHANNELS 6 Xposition Yposition Zposition Xrotation Yrotation Zrotation
										JOINT L_HandThumb3
										{
											OFFSET 4.011398 -2.315994 2.315975
											CHANNELS 6 Xposition Yposition Zposition Xrotation Yrotation Zrotation
											JOINT L_HandThumb4
											{
												OFFSET 2.095787 -1.210007 1.209984
												CHANNELS 6 Xposition Yposition Zposition Xrotation Yrotation Zrotation
												End Site
												{
													OFFSET 1.877617 -1.197205 1.536803
												}
											}
										}
									}
								}
								JOINT L_HandIndex1
								{
									OFFSET 10.514771 -0.231369 2.264849
									CHANNELS 6 Xposition Yposition Zposition Xrotation Yrotation Zrotation
									JOINT L_HandIndex2
									{
										OFFSET 5.549301 0.000000 0.000000
										CHANNELS 3 Xrotation Yrotation Zrotation
										JOINT L_HandIndex3
										{
											OFFSET 3.391098 0.000000 0.000001
											CHANNELS 3 Xrotation Yrotation Zrotation
											JOINT L_HandIndex4
											{
												OFFSET 2.334351 0.000000 0.000011
												CHANNELS 6 Xposition Yposition Zposition Xrotation Yrotation Zrotation
												End Site
												{
													OFFSET 2.334351 0.000000 0.000101
												}
											}
										}
									}
								}
								JOINT L_HandMiddle1
								{
									OFFSET 10.490761 -0.000015 0.000002
									CHANNELS 6 Xposition Yposition Zposition Xrotation Yrotation Zrotation
									JOINT L_HandMiddle2
									{
										OFFSET 5.792099 0.000000 0.000000
										CHANNELS 3 Xrotation Yrotation Zrotation
										JOINT L_HandMiddle3
										{
											OFFSET 3.713196 0.000000 0.000000
											CHANNELS 3 Xrotation Yrotation Zrotation
											JOINT L_HandMiddle4
											{
												OFFSET 2.752045 -0.000031 0.000022
												CHANNELS 6 Xposition Yposition Zposition Xrotation Yrotation Zrotation
												End Site
												{
													OFFSET 2.752045 0.000031 -0.003599
												}
											}
										}
									}
								}
								JOINT L_HandRing1
								{
									OFFSET 10.240753 -0.046051 -2.314147
									CHANNELS 6 Xposition Yposition Zposition Xrotation Yrotation Zrotation
									JOINT L_HandRing2
									{
										OFFSET 5.445206 -0.000015 0.000676
										CHANNELS 3 Xrotation Yrotation Zrotation
										JOINT L_HandRing3
										{
											OFFSET 3.713196 0.000015 -0.000674
											CHANNELS 3 Xrotation Yrotation Zrotation
											JOINT L_HandRing4
											{
												OFFSET 2.280716 0.000000 -0.000046
												CHANNELS 3 Xrotation Yrotation Zrotation
												End Site
												{
													OFFSET 2.280716 -0.000061 0.003501
												}
											}
										}
									}
								}
								JOINT L_HandPinky1
								{
									OFFSET 9.820259 -0.209747 -4.418469
									CHANNELS 6 Xposition Yposition Zposition Xrotation Yrotation Zrotation
									JOINT L_HandPinky2
									{
										OFFSET 3.676300 0.000000 0.000000
										CHANNELS 3 Xrotation Yrotation Zrotation
										JOINT L_HandPinky3
										{
											OFFSET 2.811295 0.000000 0.000001
											CHANNELS 3 Xrotation Yrotation Zrotation
											JOINT L_HandPinky4
											{
												OFFSET 1.659546 0.000000 0.000000
												CHANNELS 3 Xrotation Yrotation Zrotation
												End Site
												{
													OFFSET 1.659546 0.000015 -0.001891
												}
											}
										}
									}
								}
							}
						}
					}
				}
				JOINT R_Shoulder
				{
					OFFSET -6.140200 10.187012 -3.793198
					CHANNELS 6 Xposition Yposition Zposition Xrotation Yrotation Zrotation
					JOINT R_Arm
					{
						OFFSET -12.323095 -1.113007 -1.793499
						CHANNELS 3 Xrotation Yrotation Zrotation
						JOINT R_ForeArm
						{
							OFFSET -27.687002 0.000015 -0.000002
							CHANNELS 3 Xrotation Yrotation Zrotation
							JOINT R_Hand
							{
								OFFSET -27.873795 -0.000015 0.000000
								CHANNELS 3 Xrotation Yrotation Zrotation
								JOINT R_HandPinky1
								{
									OFFSET -9.791023 -0.212921 -4.378341
									CHANNELS 6 Xposition Yposition Zposition Xrotation Yrotation Zrotation
									JOINT R_HandPinky2
									{
										OFFSET -3.652802 0.000000 0.000000
										CHANNELS 3 Xrotation Yrotation Zrotation
										JOINT R_HandPinky3
										{
											OFFSET -2.781998 0.000000 0.000000
											CHANNELS 3 Xrotation Yrotation Zrotation
											JOINT R_HandPinky4
											{
												OFFSET -1.612122 0.000198 0.000004
												CHANNELS 3 Xrotation Yrotation Zrotation
												End Site
												{
													OFFSET -1.612106 0.000320 -0.007100
												}
											}
										}
									}
								}
								JOINT R_HandRing1
								{
									OFFSET -10.391914 0.105164 -2.349891
									CHANNELS 6 Xposition Yposition Zposition Xrotation Yrotation Zrotation
									JOINT R_HandRing2
									{
										OFFSET -5.401306 0.000000 0.000000
										CHANNELS 3 Xrotation Yrotation Zrotation
										JOINT R_HandRing3
										{
											OFFSET -3.391602 0.000000 0.000000
											CHANNELS 3 Xrotation Yrotation Zrotation
											JOINT R_HandRing4
											{
												OFFSET -2.353172 0.000305 -0.000032
												CHANNELS 3 Xrotation Yrotation Zrotation
												End Site
												{
													OFFSET -2.353180 0.000275 0.001400
												}
											}
										}
									}
								}
								JOINT R_HandMiddle1
								{
									OFFSET -10.779236 0.000000 0.000001
									CHANNELS 6 Xposition Yposition Zposition Xrotation Yrotation Zrotation
									JOINT R_HandMiddle2
									{
										OFFSET -5.616806 0.000000 0.000000
										CHANNELS 3 Xrotation Yrotation Zrotation
										JOINT R_HandMiddle3
										{
											OFFSET -3.736397 0.000000 0.000000
											CHANNELS 3 Xrotation Yrotation Zrotation
											JOINT R_HandMiddle4
											{
												OFFSET -2.691521 0.000336 -0.000028
												CHANNELS 3 Xrotation Yrotation Zrotation
												End Site
												{
													OFFSET -2.691513 0.000214 0.009200
												}
											}
										}
									}
								}
								JOINT R_HandIndex1
								{
									OFFSET -10.577324 -0.175369 2.287349
									CHANNELS 6 Xposition Yposition Zposition Xrotation Yrotation Zrotation
									JOINT R_HandIndex2
									{
										OFFSET -5.376801 0.000000 0.000001
										CHANNELS 3 Xrotation Yrotation Zrotation
										JOINT R_HandIndex3
										{
											OFFSET -3.385498 0.000000 0.000001
											CHANNELS 3 Xrotation Yrotation Zrotation
											JOINT R_HandIndex4
											{
												OFFSET -2.363556 0.000305 0.000042
												CHANNELS 3 Xrotation Yrotation Zrotation
												End Site
												{
													OFFSET -2.363548 0.000381 -0.006501
												}
											}
										}
									}
								}
								JOINT R_HandThumb1
								{
									OFFSET -2.570442 -1.245102 2.319054
									CHANNELS 6 Xposition Yposition Zposition Xrotation Yrotation Zrotation
									JOINT R_HandThumb2
									{
										OFFSET -3.518791 -2.031555 2.031563
										CHANNELS 6 Xposition Yposition Zposition Xrotation Yrotation Zrotation
										JOINT R_HandThumb3
										{
											OFFSET -3.945267 -2.277756 2.277756
											CHANNELS 6 Xposition Yposition Zposition Xrotation Yrotation Zrotation
											JOINT R_HandThumb4
											{
												OFFSET -2.055496 -1.186386 1.186664
												CHANNELS 3 Xrotation Yrotation Zrotation
												End Site
												{
													OFFSET -1.840202 -1.174805 1.508071
												}
											}
										}
									}
								}
							}
						}
					}
				}
			}
		}
	}
	JOINT L_UpLeg
	{
		OFFSET 9.633796 -3.273308 -0.000000
		CHANNELS 6 Xposition Yposition Zposition Xrotation Yrotation Zrotation
		JOINT L_Leg
		{
			OFFSET -0.006490 -41.762173 -0.553830
			CHANNELS 3 Xrotation Yrotation Zrotation
			JOINT L_Foot
			{
				OFFSET 0.006493 -39.146984 -2.021915
				CHANNELS 3 Xrotation Yrotation Zrotation
				JOINT L_ToeBase
				{
					OFFSET -0.183300 -12.185708 8.282301
					CHANNELS 6 Xposition Yposition Zposition Xrotation Yrotation Zrotation
					JOINT L_Toe_End
					{
						OFFSET -0.094684 -0.116787 6.663326
						CHANNELS 3 Xrotation Yrotation Zrotation
						End Site
						{
							OFFSET -0.094684 -0.116787 6.663328
						}
					}
				}
			}
		}
	}
	JOINT R_UpLeg
	{
		OFFSET -9.633803 -3.273293 0.000000
		CHANNELS 6 Xposition Yposition Zposition Xrotation Yrotation Zrotation
		JOINT R_Leg
		{
			OFFSET -0.006491 -41.762146 -0.555884
			CHANNELS 3 Xrotation Yrotation Zrotation
			JOINT R_Foot
			{
				OFFSET 0.006493 -39.147087 -2.019920
				CHANNELS 3 Xrotation Yrotation Zrotation
				JOINT R_ToeBase
				{
					OFFSET -0.183299 -12.185700 8.282300
					CHANNELS 6 Xposition Yposition Zposition Xrotation Yrotation Zrotation
					JOINT R_Toe_End
					{
						OFFSET 0.094687 -0.116863 6.675869
						CHANNELS 3 Xrotation Yrotation Zrotation
						End Site
						{
							OFFSET 0.094687 -0.116863 6.675869
						}
					}
				}
			}
		}
	}
}
MOTION
Frames: 4
Frame Time: 0.033333
0.082793 83.718658 -0.045946 -4.897257 -39.584979 -7.863587 0.000009 9.226314 1.577101 11.521248 0.244220 -1.846953 0.000001 16.253973 -0.165601 15.595070 12.411287 3.294509 0.000001 13.639580 -1.292305 13.345928 14.586933 4.176081 -0.000005 13.877378 -4.354199 -6.358951 -4.552041 5.148022 0.000002 4.339996 0.926917 0.000000 -0.000002 -0.000001 0.000002 4.026623 0.858509 -8.582716 11.054150 -4.971558 -0.000002 21.748810 0.000005 -0.000000 0.000000 0.000000 3.005697 7.261795 7.955605 -0.000000 0.000000 0.000000 -3.005699 7.261795 7.955605 -0.000000 0.000000 0.000000 0.000000 2.030304 2.456199 -0.000000 0.000000 0.000000 6.144197 10.187009 -3.793202 -2.970370 -26.857467 -4.218434 -61.506625 -13.821686 -63.871052 -92.196045 19.916832 -73.906028 -26.488257 2.876576 8.451697 2.421021 -1.395548 2.392361 0.699360 9.503601 -2.418262 3.496517 -2.018688 2.018713 5.975136 12.647554 1.348406 4.011393 -2.315996 2.315987 -23.873480 -17.664309 1.604757 2.095787 -1.210006 1.209995 0.000003 0.000004 0.000003 10.514767 -0.231371 2.264854 9.479727 -1.289701 -20.785570 0.709533 2.796666 -28.467090 0.714115 2.805004 -28.559642 2.334350 0.000014 0.000007 0.000004 -0.000001 0.000000 10.490752 -0.000018 0.000003 10.058189 -1.800546 -20.644771 1.774408 4.200746 -45.781908 1.632376 4.058122 -43.809219 2.752048 -0.000043 0.000023 -0.000003 -0.000001 0.000002 10.240765 -0.046061 -2.314140 1.256481 -0.066823 -17.945533 3.744581 5.453250 -68.964249 5.298040 9.647979 -33.747534 -0.000001 -0.000000 0.000006 9.820261 -0.209739 -4.418467 -7.938306 1.609035 -6.495737 2.210702 4.583939 -51.475263 0.883916 3.096341 -31.858154 0.000002 0.000000 -0.000001 -6.140208 10.187002 -3.793193 -0.080230 -6.712911 -0.143287 -13.274992 43.012741 51.346381 32.505113 129.563566 -42.420355 5.244716 -1.087618 -9.874388 -9.791022 -0.212905 -4.378341 -17.635779 -10.496908 3.325328 4.994382 -4.645615 94.147806 3.647936 -4.547237 77.470560 -0.000001 0.000000 0.000000 -10.391917 0.105155 -2.349876 -12.155670 -12.624053 9.228123 6.567908 -4.249117 114.232387 3.754864 -4.569785 78.826954 0.000000 -0.000001 -0.000004 -10.779237 0.000003 0.000013 3.764203 -12.080480 1.143758 5.715013 -4.536479 103.133411 3.160494 -4.411049 71.242083 -0.000000 0.000000 0.000000 -10.577329 -0.175383 2.287350 0.357850 -5.832775 5.175934 0.094431 -0.933735 11.539626 0.778311 -2.579682 33.567296 0.000001 0.000002 -0.000004 -2.570448 -1.245083 2.319057 13.942872 -4.273613 -5.299899 -3.518810 -2.031569 2.031558 7.113419 -20.767544 -2.619600 -3.945279 -2.277734 2.277769 -3.460562 -24.899429 -18.653902 -0.000000 0.000003 -0.000000 9.633793 -3.273299 -0.000002 -36.362964 19.456936 26.826388 86.383936 -3.280529 -1.811455 -14.248313 -0.567642 -2.426959 -0.183301 -12.185705 8.282300 1.724808 0.138544 -0.494174 -0.000004 0.000001 0.000000 -9.633808 -3.273283 -0.000003 -31.368586 -4.848528 10.236847 60.377233 3.273336 -3.566721 -23.958077 3.286029 -4.533675 -0.183300 -12.185700 8.282302 -1.127981 0.908618 0.987647 -0.000000 0.000002 -0.000000 
0.088116 84.464417 -1.404641 -4.491632 -41.160571 -7.670562 0.000010 9.226325 1.577101 10.685458 1.167874 -2.016322 -0.000001 16.253994 -0.165600 15.817366 12.495532 3.292077 0.000001 13.639607 -1.292295 13.543700 14.687724 4.223376 -0.000001 13.877410 -4.354203 -6.212980 -4.322221 5.161206 0.000007 4.339981 0.926915 -0.000000 0.000001 -0.000001 -0.000004 4.026596 0.858518 -7.958483 11.467243 -5.094921 -0.000003 21.748795 0.000005 0.000000 0.000001 0.000000 3.005694 7.261780 7.955606 0.000000 0.000001 0.000000 -3.005706 7.261780 7.955604 0.000000 0.000001 0.000000 -0.000003 2.030273 2.456204 0.000000 0.000001 0.000000 6.144202 10.187023 -3.793211 -3.200229 -25.358348 -4.310788 -61.810767 -14.126517 -65.086006 -93.568319 23.225551 -72.335364 -23.044592 3.547409 7.685039 2.421021 -1.395562 2.392362 0.699363 9.503606 -2.418265 3.496536 -2.018677 2.018709 5.975134 12.647553 1.348405 4.011404 -2.315992 2.315977 -23.873482 -17.664309 1.604755 2.095771 -1.210022 1.209986 0.000001 0.000001 0.000003 10.514771 -0.231409 2.264854 9.479727 -1.289699 -20.785572 0.709533 2.796671 -28.467083 0.714115 2.805002 -28.559640 2.334337 0.000014 0.000011 -0.000003 0.000001 -0.000001 10.490763 -0.000050 -0.000001 10.058190 -1.800540 -20.644773 1.774408 4.200746 -45.781911 1.632374 4.058123 -43.809223 2.752050 -0.000049 0.000025 -0.000001 0.000001 0.000001 10.240760 -0.046071 -2.314149 1.256481 -0.066816 -17.945533 3.744582 5.453250 -68.964249 5.298042 9.647979 -33.747534 0.000001 0.000001 -0.000001 9.820262 -0.209758 -4.418471 -7.938311 1.609040 -6.495735 2.210702 4.583938 -51.475260 0.883917 3.096339 -31.858157 0.000000 -0.000001 -0.000001 -6.140201 10.186990 -3.793201 -0.302309 -5.957821 -0.179654 -12.932258 43.223920 51.567614 33.423479 130.275599 -43.759335 7.122928 -1.467608 -9.305422 -9.791029 -0.212906 -4.378331 -17.635781 -10.496912 3.325329 4.994380 -4.645614 94.147806 3.647934 -4.547239 77.470560 -0.000002 0.000000 -0.000000 -10.391912 0.105153 -2.349884 -12.155667 -12.624058 9.228125 6.567906 -4.249117 114.232387 3.754865 -4.569785 78.826960 -0.000001 0.000000 0.000001 -10.779242 0.000003 0.000004 3.764204 -12.080484 1.143757 5.715013 -4.536479 103.133411 3.160494 -4.411049 71.242083 -0.000000 -0.000001 -0.000000 -10.577335 -0.175384 2.287352 0.357850 -5.832779 5.175934 0.094430 -0.933736 11.539624 0.778312 -2.579683 33.567293 -0.000000 0.000001 -0.000001 -2.570465 -1.245120 2.319054 13.942872 -4.273623 -5.299903 -3.518807 -2.031551 2.031555 7.113417 -20.767550 -2.619601 -3.945260 -2.277734 2.277772 -3.460563 -24.899426 -18.653904 0.000000 0.000001 -0.000002 9.633795 -3.273310 0.000002 -45.552926 16.524688 30.101409 85.008732 -1.574212 0.947845 -17.670224 -0.727694 -2.664257 -0.183300 -12.185705 8.282301 3.657888 0.329642 -2.389733 -0.000000 0.000001 -0.000000 -9.633807 -3.273300 0.000004 -28.496410 -3.821607 7.770326 59.497689 6.195835 -3.254767 -26.468344 3.377169 -3.832540 -0.183300 -12.185701 8.282302 -1.127981 0.908642 0.987645 0.000000 -0.000000 -0.000000 
0.118878 84.907082 -2.432237 -4.024767 -42.948745 -7.402428 0.000011 9.226305 1.577100 9.773765 2.169901 -2.193034 0.000000 16.253998 -0.165602 15.960320 12.522127 3.139213 -0.000000 13.639585 -1.292300 13.705937 14.699836 4.109685 0.000003 13.877390 -4.354187 -6.062857 -4.100995 5.175654 -0.000000 4.339996 0.926915 0.000000 0.000000 -0.000002 -0.000001 4.026606 0.858509 -7.688466 11.655855 -5.001497 -0.000002 21.748795 -0.000001 0.000001 0.000001 -0.000001 3.005698 7.261780 7.955597 0.000001 0.000001 -0.000001 -3.005701 7.261780 7.955597 0.000001 0.000001 -0.000001 -0.000003 2.030258 2.456200 0.000001 0.000001 -0.000001 6.144200 10.187012 -3.793194 -3.466713 -23.639389 -4.416478 -62.009409 -14.975497 -66.392301 -92.775272 18.277043 -72.279862 -28.082492 3.926978 7.802158 2.421028 -1.395555 2.392371 0.699360 9.503608 -2.418271 3.496522 -2.018657 2.018721 5.975132 12.647549 1.348407 4.011413 -2.315984 2.315968 -23.873488 -17.664314 1.604761 2.095786 -1.209995 1.209989 0.000005 0.000003 0.000004 10.514782 -0.231377 2.264858 9.479725 -1.289698 -20.785569 0.709532 2.796673 -28.467090 0.714113 2.805001 -28.559639 2.334341 0.000013 0.000009 -0.000002 -0.000000 0.000001 10.490775 -0.000039 0.000008 10.058188 -1.800542 -20.644771 1.774409 4.200739 -45.781911 1.632383 4.058120 -43.809223 2.752063 -0.000042 0.000017 -0.000002 0.000001 -0.000001 10.240757 -0.046061 -2.314140 1.256481 -0.066822 -17.945535 3.744582 5.453258 -68.964249 5.298038 9.647979 -33.747538 0.000001 0.000001 0.000001 9.820258 -0.209742 -4.418468 -7.938307 1.609041 -6.495734 2.210702 4.583936 -51.475263 0.883917 3.096341 -31.858157 -0.000002 0.000002 -0.000001 -6.140202 10.186969 -3.793179 -0.540955 -5.185903 -0.221500 -13.644887 42.808054 52.131573 33.399154 130.131715 -43.305032 6.891118 -2.258020 -9.345481 -9.791024 -0.212902 -4.378337 -17.635782 -10.496908 3.325329 4.994381 -4.645614 94.147806 3.647935 -4.547239 77.470560 0.000001 -0.000001 -0.000000 -10.391913 0.105153 -2.349888 -12.155671 -12.624056 9.228123 6.567908 -4.249117 114.232387 3.754864 -4.569785 78.826954 -0.000000 -0.000001 -0.000001 -10.779237 0.000002 -0.000004 3.764203 -12.080480 1.143758 5.715014 -4.536479 103.133411 3.160494 -4.411049 71.242083 -0.000000 -0.000000 -0.000000 -10.577326 -0.175371 2.287347 0.357850 -5.832776 5.175936 0.094430 -0.933735 11.539624 0.778312 -2.579682 33.567293 -0.000000 -0.000001 -0.000003 -2.570445 -1.245106 2.319053 13.942872 -4.273615 -5.299897 -3.518799 -2.031571 2.031553 7.113417 -20.767544 -2.619601 -3.945276 -2.277747 2.277753 -3.460560 -24.899427 -18.653904 -0.000001 0.000001 -0.000000 9.633796 -3.273304 0.000001 -51.418863 12.989522 31.583580 80.344082 -2.188106 2.165083 -21.339248 1.942531 -3.178224 -0.183300 -12.185706 8.282301 6.984042 1.011121 -3.675786 -0.000001 0.000001 -0.000000 -9.633804 -3.273280 0.000002 -25.758501 -1.451328 5.836170 58.412433 5.656015 -3.372254 -29.280977 4.895052 -1.023304 -0.183299 -12.185699 8.282300 -1.127981 0.908639 0.987641 -0.000000 0.000002 -0.000000 
0.178304 85.036530 -3.274247 -3.518132 -44.799552 -7.058964 0.000012 9.226312 1.577101 8.913732 3.206826 -2.427686 0.000001 16.253977 -0.165598 16.034153 12.539675 2.951063 0.000002 13.639599 -1.292299 13.817122 14.688378 3.942642 -0.000004 13.877379 -4.354192 -5.915781 -3.891391 5.190368 -0.000002 4.340012 0.926909 -0.000000 0.000000 0.000001 -0.000002 4.026614 0.858508 -7.677482 11.723696 -4.754224 -0.000001 21.748810 0.000002 -0.000001 -0.000001 0.000000 3.005698 7.261780 7.955601 -0.000000 -0.000001 0.000000 -3.005697 7.261795 7.955600 -0.000000 -0.000001 0.000000 -0.000002 2.030273 2.456204 -0.000000 -0.000001 0.000000 6.144200 10.187006 -3.793205 -3.712922 -21.852891 -4.432974 -62.457832 -15.363824 -67.282452 -94.380906 23.912779 -70.991388 -22.627679 3.828006 7.653922 2.421026 -1.395554 2.392366 0.699360 9.503603 -2.418267 3.496505 -2.018697 2.018724 5.975133 12.647548 1.348408 4.011407 -2.316007 2.315969 -23.873485 -17.664310 1.604760 2.095787 -1.210008 1.209975 0.000005 0.000003 0.000007 10.514786 -0.231394 2.264856 9.479727 -1.289703 -20.785574 0.709532 2.796672 -28.467088 0.714118 2.804999 -28.559640 2.334341 0.000015 0.000010 0.000002 -0.000000 0.000001 10.490764 -0.000035 0.000005 10.058191 -1.800548 -20.644773 1.774409 4.200744 -45.781911 1.632378 4.058121 -43.809219 2.752040 -0.000063 0.000026 -0.000003 -0.000001 -0.000001 10.240772 -0.046047 -2.314139 1.256479 -0.066823 -17.945533 3.744579 5.453253 -68.964256 5.298044 9.647979 -33.747534 0.000003 0.000002 0.000001 9.820269 -0.209743 -4.418460 -7.938307 1.609034 -6.495737 2.210703 4.583939 -51.475256 0.883914 3.096339 -31.858154 -0.000002 0.000003 -0.000000 -6.140203 10.186958 -3.793195 -0.784566 -4.329656 -0.242210 -14.101626 42.436379 52.642085 33.230469 130.147533 -42.871595 6.732899 -3.030066 -9.370013 -9.791026 -0.212916 -4.378329 -17.635781 -10.496909 3.325330 4.994379 -4.645615 94.147806 3.647934 -4.547241 77.470560 0.000001 -0.000001 -0.000000 -10.391912 0.105140 -2.349874 -12.155671 -12.624056 9.228123 6.567908 -4.249118 114.232380 3.754864 -4.569785 78.826954 0.000000 0.000000 0.000001 -10.779228 -0.000014 0.000005 3.764203 -12.080480 1.143758 5.715014 -4.536480 103.133411 3.160493 -4.411050 71.242083 -0.000000 -0.000000 -0.000000 -10.577330 -0.175399 2.287356 0.357850 -5.832777 5.175934 0.094430 -0.933736 11.539624 0.778310 -2.579684 33.567296 -0.000001 -0.000001 -0.000000 -2.570451 -1.245122 2.319066 13.942875 -4.273615 -5.299903 -3.518807 -2.031567 2.031565 7.113421 -20.767549 -2.619601 -3.945276 -2.277747 2.277747 -3.460562 -24.899431 -18.653904 -0.000001 0.000003 0.000002 9.633793 -3.273301 0.000003 -54.479802 9.247082 32.584517 72.391194 -0.315828 2.050925 -22.852553 0.782568 -4.054779 -0.183300 -12.185705 8.282304 7.439491 0.394931 -6.343930 -0.000000 -0.000001 -0.000000 -9.633806 -3.273305 0.000002 -22.985648 1.811738 4.030346 57.162946 4.950024 -3.506187 -32.152289 5.378610 2.070079 -0.183300 -12.185699 8.282302 -1.127990 0.908640 0.987643 -0.000000 0.000004 -0.000000 
